# xmcd
#
# Track frame offsets: 
#        150
#        23230
#        39094
#        52615
#        82006
#        95813
#        109743
#        125946
#        145847
#        160526
#        176038
#        194375
#        212359
#
# Disc length: 3041 seconds
#
# Revision: 2
# Processed by: cddbd v1.5.2PL0 Copyright (c) Steve Scherf et al.
# Submitted via: ExactAudioCopy v1.0b4
#
DISCID=a90bdf0d
DTITLE=Snowy White Blues Project - In Our Time Of Living
DYEAR=2008
DGENRE=Blues Rock
TTITLE0=Rolling With My Baby
TTITLE1=Good Morning Blues
TTITLE2=Lonely Man Blues
TTITLE3=In Our Time Of Living
TTITLE4=Blue To The Bone
TTITLE5=Red Wine Blues
TTITLE6=I Ain't No Doctor
TTITLE7=I Still See You
TTITLE8=Hot For The Money
TTITLE9=I'm So Glad
TTITLE10=One Way Ticket
TTITLE11=Simple
TTITLE12=I Want To Thank You
EXTD=YEAR: 2009
EXTT0=
EXTT1=
EXTT2=
EXTT3=
EXTT4=
EXTT5=
EXTT6=
EXTT7=
EXTT8=
EXTT9=
EXTT10=
EXTT11=
EXTT12=
PLAYORDER=
